<?xml version="1.0" encoding="utf-8"?>
<!-- Generator: Adobe Illustrator 24.0.0, SVG Export Plug-In . SVG Version: 6.00 Build 0)  -->
<svg version="1.1" id="Ebene_1" xmlns="http://www.w3.org/2000/svg" xmlns:xlink="http://www.w3.org/1999/xlink" x="0px" y="0px"
	 viewBox="0 0 800 800" style="enable-background:new 0 0 800 800;" xml:space="preserve">
<style type="text/css">
	.st0{fill:#FFFFFF;fill-opacity:0;}
	.st1{fill:#FFFFFF;}
</style>
<g>
	<rect class="st0" width="800" height="800"/>
	<path class="st1" d="M541.3,733.3c-18.4,0-33.3-14.9-33.3-33.3v-86.7c2.1-20.2-4.4-40.3-18-55.3c-12.5-13.5-11.6-34.6,1.9-47.1
		c5.1-4.7,11.5-7.7,18.4-8.6c81.3-9.7,156.3-35.7,156.3-176.7c0-26.3-7.7-52.1-22.3-74c-13.5-20.2-18.4-44.9-13.7-68.7
		c3-15.5,3-31.5,0-47c-25,8.4-48.5,20.7-69.7,36.3c-8.1,5.8-18.4,7.6-28,5c-60.2-17-123.8-17-184,0c-9.6,2.6-19.9,0.8-28-5
		c-21.3-15.8-45.1-28.1-70.3-36.3c-3.2,15.5-3.2,31.5,0,47c4.4,24.1-0.8,48.9-14.3,69.3c-14.5,22.1-22.3,47.9-22.3,74.3
		C214,456.3,276.7,491,370.7,503c12.5,1.6,23.1,10.1,27.3,22c3.9,11.6,1.3,24.3-7,33.3c-13.1,14-19.8,32.9-18.3,52V700
		c0,18.4-14.9,33.3-33.3,33.3c-18.4,0-33.3-14.9-33.3-33.3v-19c-66.5,7.7-132.5-18.5-175.7-69.7c-10.9-12.1-24.1-22.1-38.7-29.3
		c-17.9-4.6-28.6-22.8-24-40.7c4.6-17.9,22.8-28.6,40.7-24c25.6,9.3,48.6,24.9,66.7,45.3c33.3,33.3,66.7,62.7,130,50.7
		c-1.1-17.9,1.5-35.8,7.7-52.7C244,543.3,146,494,146,327.3c-0.1-39.5,11.5-78.1,33.3-111c4.1-6.1,5.6-13.5,4.3-20.7
		c-6.7-36-2.9-73.1,11-107c3.8-9.1,11.5-16.1,21-19c11.3-3.3,52-10,129,40c62.3-15,127.3-15,189.7,0c77-50,117.7-43.7,128.7-40
		c9.5,2.9,17.2,9.9,21,19c13.9,34,17.8,71.2,11,107.3c-1.4,6.6-0.1,13.4,3.7,19c21.9,33,33.5,71.7,33.3,111.3
		c0,169-97.3,218-166.7,233.3c6.1,17.9,8.6,36.8,7.3,55.7V700C572.7,717.7,559,732.3,541.3,733.3L541.3,733.3z"/>
</g>
</svg>
